<svg xmlns="http://www.w3.org/2000/svg" xmlns:xlink="http://www.w3.org/1999/xlink" width="500" zoomAndPan="magnify" viewBox="0 0 375 374.999991" height="500" preserveAspectRatio="xMidYMid meet" version="1.0"><defs><g/><clipPath id="7f13d21052"><path d="M 88.359375 46.902344 L 286.640625 46.902344 L 286.640625 245.183594 L 88.359375 245.183594 Z M 88.359375 46.902344 " clip-rule="nonzero"/></clipPath><clipPath id="a9c1375103"><path d="M 187.5 46.902344 C 132.746094 46.902344 88.359375 91.289062 88.359375 146.042969 C 88.359375 200.796875 132.746094 245.183594 187.5 245.183594 C 242.253906 245.183594 286.640625 200.796875 286.640625 146.042969 C 286.640625 91.289062 242.253906 46.902344 187.5 46.902344 Z M 187.5 46.902344 " clip-rule="nonzero"/></clipPath><clipPath id="63a91ca39c"><path d="M 124 140 L 286.359375 140 L 286.359375 218.335938 L 124 218.335938 Z M 124 140 " clip-rule="nonzero"/></clipPath><clipPath id="b3f672bc05"><path d="M 88.359375 65 L 250 65 L 250 146 L 88.359375 146 Z M 88.359375 65 " clip-rule="nonzero"/></clipPath><clipPath id="13094b3b8b"><path d="M 191 43.605469 L 200 43.605469 L 200 52 L 191 52 Z M 191 43.605469 " clip-rule="nonzero"/></clipPath></defs><g clip-path="url(#7f13d21052)"><g clip-path="url(#a9c1375103)"><path fill="#ede3ff" d="M 88.359375 46.902344 L 286.640625 46.902344 L 286.640625 245.183594 L 88.359375 245.183594 Z M 88.359375 46.902344 " fill-opacity="1" fill-rule="nonzero"/></g></g><g clip-path="url(#63a91ca39c)"><path fill="#24006b" d="M 251.042969 148.074219 L 240.652344 148.074219 C 240.933594 150.300781 241.074219 152.5625 241.074219 154.851562 C 241.074219 184.121094 217.359375 207.835938 188.101562 207.835938 C 158.007812 207.835938 136.792969 184.164062 135.179688 157.425781 L 135.179688 157.375 C 135.15625 157.066406 135.140625 156.757812 135.140625 156.460938 L 156.171875 156.460938 C 157.867188 161.117188 161.613281 164.449219 167.59375 164.449219 C 173.585938 164.449219 179.769531 158.996094 179.769531 152.269531 C 179.769531 145.546875 173.585938 140.09375 167.59375 140.09375 C 161.613281 140.09375 157.867188 143.421875 156.171875 148.078125 L 125.152344 148.078125 C 124.894531 150.378906 124.769531 152.722656 124.769531 155.101562 C 124.769531 190.082031 153.125 218.441406 188.105469 218.441406 C 222.625 218.441406 250.699219 190.816406 251.417969 156.464844 L 263.027344 156.464844 C 264.738281 161.121094 269.214844 164.453125 274.460938 164.453125 C 281.1875 164.453125 286.640625 159 286.640625 152.273438 C 286.640625 145.550781 281.1875 140.097656 274.460938 140.097656 C 269.214844 140.097656 264.738281 143.425781 263.027344 148.082031 L 251.042969 148.082031 Z M 274.460938 147.421875 C 271.785156 147.421875 269.613281 149.59375 269.613281 152.269531 C 269.613281 154.949219 271.785156 157.121094 274.460938 157.121094 C 277.140625 157.121094 279.3125 154.949219 279.3125 152.269531 C 279.3125 149.59375 277.136719 147.421875 274.460938 147.421875 Z M 167.59375 147.421875 C 164.914062 147.421875 162.757812 149.59375 162.757812 152.269531 C 162.757812 154.949219 164.917969 157.121094 167.59375 157.121094 C 170.28125 157.121094 172.441406 154.949219 172.441406 152.269531 C 172.441406 149.59375 170.28125 147.421875 167.59375 147.421875 Z M 167.59375 147.421875 " fill-opacity="1" fill-rule="evenodd"/></g><g clip-path="url(#b3f672bc05)"><path fill="#8c52ff" d="M 172.414062 93.136719 C 153.34375 97.96875 137.703125 111.421875 129.871094 129.089844 L 111.957031 129.089844 C 110.261719 124.4375 105.785156 121.117188 100.527344 121.117188 C 93.8125 121.121094 88.359375 126.5625 88.359375 133.289062 C 88.359375 140.011719 93.8125 145.464844 100.527344 145.464844 C 105.785156 145.464844 110.261719 142.132812 111.957031 137.480469 L 138.039062 137.480469 C 145.230469 116.761719 164.929688 101.878906 188.105469 101.878906 C 208.015625 101.878906 225.351562 112.859375 234.40625 129.089844 L 217.6875 129.089844 C 215.988281 124.4375 211.511719 121.117188 206.253906 121.117188 C 199.539062 121.117188 194.085938 126.558594 194.085938 133.285156 C 194.085938 140.007812 199.539062 145.460938 206.253906 145.460938 C 211.511719 145.460938 215.988281 142.128906 217.6875 137.476562 L 249.363281 137.476562 C 243.207031 115.726562 225.777344 98.714844 203.785156 93.132812 L 203.785156 77.507812 L 208.96875 77.507812 C 212.339844 77.507812 215.105469 74.742188 215.105469 71.359375 C 215.105469 67.976562 212.339844 65.214844 208.96875 65.214844 L 200.714844 65.214844 C 201.316406 66.578125 201.652344 68.082031 201.652344 69.664062 C 201.652344 75.707031 196.75 80.621094 190.707031 80.621094 C 184.652344 80.621094 179.75 75.707031 179.75 69.664062 C 179.75 68.082031 180.085938 66.578125 180.691406 65.214844 L 167.25 65.214844 C 163.867188 65.214844 161.105469 67.976562 161.105469 71.359375 C 161.105469 74.742188 163.867188 77.507812 167.25 77.507812 L 172.421875 77.507812 L 172.421875 93.136719 Z M 206.25 128.4375 C 208.9375 128.4375 211.097656 130.609375 211.097656 133.289062 C 211.097656 135.964844 208.9375 138.136719 206.25 138.136719 C 203.574219 138.136719 201.398438 135.964844 201.398438 133.289062 C 201.398438 130.609375 203.578125 128.4375 206.25 128.4375 Z M 100.527344 128.4375 C 103.214844 128.4375 105.375 130.609375 105.375 133.289062 C 105.375 135.964844 103.214844 138.136719 100.527344 138.136719 C 97.847656 138.136719 95.675781 135.964844 95.675781 133.289062 C 95.6875 130.609375 97.847656 128.4375 100.527344 128.4375 Z M 100.527344 128.4375 " fill-opacity="1" fill-rule="evenodd"/></g><path fill="#8c52ff" d="M 190.699219 62.8125 C 186.90625 62.8125 183.847656 65.886719 183.847656 69.667969 C 183.847656 73.445312 186.910156 76.519531 190.699219 76.519531 C 194.480469 76.519531 197.539062 73.445312 197.539062 69.667969 C 197.539062 65.886719 194.484375 62.8125 190.699219 62.8125 Z M 190.699219 62.8125 " fill-opacity="1" fill-rule="evenodd"/><path fill="#8c52ff" d="M 182.007812 49.128906 C 179.050781 49.128906 176.65625 51.519531 176.65625 54.476562 C 176.65625 57.4375 179.050781 59.828125 182.007812 59.828125 C 184.964844 59.828125 187.355469 57.4375 187.355469 54.476562 C 187.355469 51.519531 184.964844 49.128906 182.007812 49.128906 Z M 182.007812 49.128906 " fill-opacity="1" fill-rule="evenodd"/><g clip-path="url(#13094b3b8b)"><path fill="#8c52ff" d="M 195.703125 43.625 C 193.441406 43.625 191.617188 45.464844 191.617188 47.714844 C 191.617188 49.976562 193.445312 51.800781 195.703125 51.800781 C 197.964844 51.800781 199.792969 49.976562 199.792969 47.714844 C 199.792969 45.464844 197.96875 43.625 195.703125 43.625 Z M 195.703125 43.625 " fill-opacity="1" fill-rule="evenodd"/></g><g fill="#000000" fill-opacity="1"><g transform="translate(42.978535, 309.271602)"><g><path d="M 21.359375 0.71875 C 17.617188 0.71875 14.257812 -0.0703125 11.28125 -1.65625 C 8.3125 -3.238281 5.976562 -5.4375 4.28125 -8.25 C 2.582031 -11.070312 1.734375 -14.269531 1.734375 -17.84375 C 1.734375 -21.414062 2.582031 -24.609375 4.28125 -27.421875 C 5.976562 -30.242188 8.3125 -32.445312 11.28125 -34.03125 C 14.257812 -35.613281 17.617188 -36.40625 21.359375 -36.40625 C 24.617188 -36.40625 27.554688 -35.828125 30.171875 -34.671875 C 32.796875 -33.515625 34.972656 -31.847656 36.703125 -29.671875 L 30.28125 -23.859375 C 27.96875 -26.648438 25.164062 -28.046875 21.875 -28.046875 C 19.9375 -28.046875 18.207031 -27.617188 16.6875 -26.765625 C 15.175781 -25.921875 14.003906 -24.722656 13.171875 -23.171875 C 12.347656 -21.628906 11.9375 -19.851562 11.9375 -17.84375 C 11.9375 -15.84375 12.347656 -14.066406 13.171875 -12.515625 C 14.003906 -10.972656 15.175781 -9.773438 16.6875 -8.921875 C 18.207031 -8.066406 19.9375 -7.640625 21.875 -7.640625 C 25.164062 -7.640625 27.96875 -9.035156 30.28125 -11.828125 L 36.703125 -6.015625 C 34.972656 -3.835938 32.796875 -2.171875 30.171875 -1.015625 C 27.554688 0.140625 24.617188 0.71875 21.359375 0.71875 Z M 21.359375 0.71875 "/></g></g></g><g fill="#000000" fill-opacity="1"><g transform="translate(80.609144, 309.271602)"><g><path d="M 21.5625 0.71875 C 17.789062 0.71875 14.398438 -0.078125 11.390625 -1.671875 C 8.390625 -3.273438 6.03125 -5.488281 4.3125 -8.3125 C 2.59375 -11.132812 1.734375 -14.3125 1.734375 -17.84375 C 1.734375 -21.375 2.59375 -24.550781 4.3125 -27.375 C 6.03125 -30.195312 8.390625 -32.40625 11.390625 -34 C 14.398438 -35.601562 17.789062 -36.40625 21.5625 -36.40625 C 25.332031 -36.40625 28.722656 -35.601562 31.734375 -34 C 34.742188 -32.40625 37.109375 -30.195312 38.828125 -27.375 C 40.546875 -24.550781 41.40625 -21.375 41.40625 -17.84375 C 41.40625 -14.3125 40.546875 -11.132812 38.828125 -8.3125 C 37.109375 -5.488281 34.742188 -3.273438 31.734375 -1.671875 C 28.722656 -0.078125 25.332031 0.71875 21.5625 0.71875 Z M 21.5625 -7.640625 C 23.363281 -7.640625 24.992188 -8.066406 26.453125 -8.921875 C 27.921875 -9.773438 29.078125 -10.972656 29.921875 -12.515625 C 30.773438 -14.066406 31.203125 -15.84375 31.203125 -17.84375 C 31.203125 -19.851562 30.773438 -21.628906 29.921875 -23.171875 C 29.078125 -24.722656 27.921875 -25.921875 26.453125 -26.765625 C 24.992188 -27.617188 23.363281 -28.046875 21.5625 -28.046875 C 19.757812 -28.046875 18.128906 -27.617188 16.671875 -26.765625 C 15.210938 -25.921875 14.054688 -24.722656 13.203125 -23.171875 C 12.359375 -21.628906 11.9375 -19.851562 11.9375 -17.84375 C 11.9375 -15.84375 12.359375 -14.066406 13.203125 -12.515625 C 14.054688 -10.972656 15.210938 -9.773438 16.671875 -8.921875 C 18.128906 -8.066406 19.757812 -7.640625 21.5625 -7.640625 Z M 21.5625 -7.640625 "/></g></g></g><g fill="#000000" fill-opacity="1"><g transform="translate(123.746656, 309.271602)"><g><path d="M 3.5625 -35.6875 L 20.4375 -35.6875 C 24.351562 -35.6875 27.820312 -34.953125 30.84375 -33.484375 C 33.875 -32.023438 36.21875 -29.953125 37.875 -27.265625 C 39.539062 -24.585938 40.375 -21.445312 40.375 -17.84375 C 40.375 -14.238281 39.539062 -11.09375 37.875 -8.40625 C 36.21875 -5.726562 33.875 -3.65625 30.84375 -2.1875 C 27.820312 -0.726562 24.351562 0 20.4375 0 L 3.5625 0 Z M 20.03125 -8.0625 C 23.09375 -8.0625 25.550781 -8.925781 27.40625 -10.65625 C 29.257812 -12.382812 30.1875 -14.78125 30.1875 -17.84375 C 30.1875 -20.90625 29.257812 -23.300781 27.40625 -25.03125 C 25.550781 -26.769531 23.09375 -27.640625 20.03125 -27.640625 L 13.65625 -27.640625 L 13.65625 -8.0625 Z M 20.03125 -8.0625 "/></g></g></g><g fill="#000000" fill-opacity="1"><g transform="translate(165.864375, 309.271602)"><g><path d="M 32.21875 -7.796875 L 32.21875 0 L 3.5625 0 L 3.5625 -35.6875 L 31.5625 -35.6875 L 31.5625 -27.890625 L 13.5625 -27.890625 L 13.5625 -21.875 L 29.421875 -21.875 L 29.421875 -14.328125 L 13.5625 -14.328125 L 13.5625 -7.796875 Z M 32.21875 -7.796875 "/></g></g></g><g fill="#6604f1" fill-opacity="1"><g transform="translate(213.8946, 309.271602)"><g><path d="M 3.5625 -35.6875 L 13.65625 -35.6875 L 13.65625 -8 L 30.6875 -8 L 30.6875 0 L 3.5625 0 Z M 3.5625 -35.6875 "/></g></g></g><g fill="#6604f1" fill-opacity="1"><g transform="translate(244.998492, 309.271602)"><g><path d="M 27.484375 -6.9375 L 12.390625 -6.9375 L 9.578125 0 L -0.71875 0 L 15.046875 -35.6875 L 24.984375 -35.6875 L 40.78125 0 L 30.28125 0 Z M 24.53125 -14.375 L 19.9375 -25.796875 L 15.34375 -14.375 Z M 24.53125 -14.375 "/></g></g></g><g fill="#6604f1" fill-opacity="1"><g transform="translate(285.076605, 309.271602)"><g><path d="M 31 -18.609375 C 33.039062 -17.890625 34.640625 -16.773438 35.796875 -15.265625 C 36.953125 -13.753906 37.53125 -11.925781 37.53125 -9.78125 C 37.53125 -6.65625 36.269531 -4.242188 33.75 -2.546875 C 31.238281 -0.847656 27.601562 0 22.84375 0 L 3.5625 0 L 3.5625 -35.6875 L 21.828125 -35.6875 C 26.378906 -35.6875 29.84375 -34.84375 32.21875 -33.15625 C 34.601562 -31.476562 35.796875 -29.210938 35.796875 -26.359375 C 35.796875 -24.660156 35.378906 -23.140625 34.546875 -21.796875 C 33.710938 -20.453125 32.53125 -19.390625 31 -18.609375 Z M 13.5625 -28.390625 L 13.5625 -21.515625 L 20.5 -21.515625 C 23.894531 -21.515625 25.59375 -22.671875 25.59375 -24.984375 C 25.59375 -27.253906 23.894531 -28.390625 20.5 -28.390625 Z M 22.03125 -7.296875 C 25.5625 -7.296875 27.328125 -8.5 27.328125 -10.90625 C 27.328125 -13.320312 25.5625 -14.53125 22.03125 -14.53125 L 13.5625 -14.53125 L 13.5625 -7.296875 Z M 22.03125 -7.296875 "/></g></g></g></svg>