<svg xmlns="http://www.w3.org/2000/svg" xmlns:xlink="http://www.w3.org/1999/xlink" width="1920" zoomAndPan="magnify" viewBox="0 0 1440 809.999993" height="1080" preserveAspectRatio="xMidYMid meet" version="1.0"><defs><g/><clipPath id="44c5c89209"><path d="M 72.445312 81.417969 L 730.554688 81.417969 L 730.554688 739.527344 L 72.445312 739.527344 Z M 72.445312 81.417969 " clip-rule="nonzero"/></clipPath><clipPath id="39da222891"><path d="M 401.5 81.417969 C 219.769531 81.417969 72.445312 228.742188 72.445312 410.472656 C 72.445312 592.207031 219.769531 739.527344 401.5 739.527344 C 583.230469 739.527344 730.554688 592.207031 730.554688 410.472656 C 730.554688 228.742188 583.230469 81.417969 401.5 81.417969 Z M 401.5 81.417969 " clip-rule="nonzero"/></clipPath><clipPath id="ad7ecb4d45"><path d="M 193 390 L 730.195312 390 L 730.195312 650.910156 L 193 650.910156 Z M 193 390 " clip-rule="nonzero"/></clipPath><clipPath id="5159d7db22"><path d="M 72.445312 142 L 607 142 L 607 409 L 72.445312 409 Z M 72.445312 142 " clip-rule="nonzero"/></clipPath><clipPath id="bbc7f2350d"><path d="M 415 70.472656 L 443 70.472656 L 443 98 L 415 98 Z M 415 70.472656 " clip-rule="nonzero"/></clipPath></defs><g clip-path="url(#44c5c89209)"><g clip-path="url(#39da222891)"><path fill="#ede3ff" d="M 72.445312 81.417969 L 730.554688 81.417969 L 730.554688 739.527344 L 72.445312 739.527344 Z M 72.445312 81.417969 " fill-opacity="1" fill-rule="nonzero"/></g></g><g clip-path="url(#ad7ecb4d45)"><path fill="#24006b" d="M 612.390625 417.214844 L 577.90625 417.214844 C 578.839844 424.601562 579.316406 432.117188 579.316406 439.710938 C 579.316406 536.859375 500.605469 615.566406 403.496094 615.566406 C 303.609375 615.566406 233.191406 536.992188 227.847656 448.253906 L 227.847656 448.082031 C 227.769531 447.054688 227.71875 446.027344 227.71875 445.054688 L 297.515625 445.054688 C 303.148438 460.507812 315.574219 471.5625 335.421875 471.5625 C 355.308594 471.5625 375.84375 453.464844 375.84375 431.140625 C 375.84375 408.820312 355.308594 390.722656 335.421875 390.722656 C 315.574219 390.722656 303.148438 401.777344 297.515625 417.230469 L 194.5625 417.230469 C 193.707031 424.863281 193.285156 432.640625 193.285156 440.539062 C 193.285156 556.640625 287.40625 650.761719 403.507812 650.761719 C 518.070312 650.761719 611.257812 559.078125 613.640625 445.066406 L 652.179688 445.066406 C 657.851562 460.519531 672.710938 471.574219 690.125 471.574219 C 712.449219 471.574219 730.546875 453.476562 730.546875 431.15625 C 730.546875 408.832031 712.449219 390.734375 690.125 390.734375 C 672.710938 390.734375 657.851562 401.789062 652.179688 417.242188 L 612.390625 417.242188 Z M 690.125 415.042969 C 681.242188 415.042969 674.027344 422.257812 674.027344 431.140625 C 674.027344 440.027344 681.242188 447.238281 690.125 447.238281 C 699.011719 447.238281 706.222656 440.027344 706.222656 431.140625 C 706.222656 422.257812 698.996094 415.042969 690.125 415.042969 Z M 335.421875 415.042969 C 326.539062 415.042969 319.378906 422.257812 319.378906 431.140625 C 319.378906 440.027344 326.550781 447.238281 335.421875 447.238281 C 344.347656 447.238281 351.519531 440.027344 351.519531 431.140625 C 351.519531 422.257812 344.347656 415.042969 335.421875 415.042969 Z M 335.421875 415.042969 " fill-opacity="1" fill-rule="evenodd"/></g><g clip-path="url(#5159d7db22)"><path fill="#8c52ff" d="M 351.425781 234.871094 C 288.132812 250.914062 236.21875 295.558594 210.226562 354.210938 L 150.773438 354.210938 C 145.140625 338.757812 130.277344 327.742188 112.824219 327.742188 C 90.542969 327.753906 72.445312 345.8125 72.445312 368.136719 C 72.445312 390.457031 90.542969 408.554688 112.824219 408.554688 C 130.277344 408.554688 145.140625 397.5 150.773438 382.046875 L 237.339844 382.046875 C 261.203125 313.289062 326.589844 263.890625 403.507812 263.890625 C 469.582031 263.890625 527.128906 300.335938 557.175781 354.210938 L 501.683594 354.210938 C 496.050781 338.757812 481.191406 327.742188 463.738281 327.742188 C 441.457031 327.742188 423.359375 345.800781 423.359375 368.121094 C 423.359375 390.445312 441.457031 408.542969 463.738281 408.542969 C 481.191406 408.542969 496.050781 397.484375 501.683594 382.035156 L 606.824219 382.035156 C 586.382812 309.851562 528.535156 253.386719 455.550781 234.855469 L 455.550781 182.996094 L 472.753906 182.996094 C 483.941406 182.996094 493.117188 173.824219 493.117188 162.597656 C 493.117188 151.371094 483.941406 142.195312 472.753906 142.195312 L 445.351562 142.195312 C 447.351562 146.722656 448.472656 151.710938 448.472656 156.964844 C 448.472656 177.023438 432.203125 193.328125 412.144531 193.328125 C 392.046875 193.328125 375.777344 177.023438 375.777344 156.964844 C 375.777344 151.710938 376.882812 146.722656 378.898438 142.195312 L 334.289062 142.195312 C 323.0625 142.195312 313.890625 151.371094 313.890625 162.597656 C 313.890625 173.824219 323.0625 182.996094 334.289062 182.996094 L 351.453125 182.996094 L 351.453125 234.871094 Z M 463.726562 352.039062 C 472.648438 352.039062 479.824219 359.25 479.824219 368.136719 C 479.824219 377.019531 472.648438 384.230469 463.726562 384.230469 C 454.839844 384.230469 447.628906 377.019531 447.628906 368.136719 C 447.628906 359.25 454.855469 352.039062 463.726562 352.039062 Z M 112.824219 352.039062 C 121.75 352.039062 128.921875 359.25 128.921875 368.136719 C 128.921875 377.019531 121.75 384.230469 112.824219 384.230469 C 103.941406 384.230469 96.730469 377.019531 96.730469 368.136719 C 96.769531 359.25 103.941406 352.039062 112.824219 352.039062 Z M 112.824219 352.039062 " fill-opacity="1" fill-rule="evenodd"/></g><path fill="#8c52ff" d="M 412.117188 134.230469 C 399.519531 134.230469 389.375 144.433594 389.375 156.976562 C 389.375 169.519531 399.535156 179.71875 412.117188 179.71875 C 424.660156 179.71875 434.820312 169.519531 434.820312 156.976562 C 434.820312 144.433594 424.675781 134.230469 412.117188 134.230469 Z M 412.117188 134.230469 " fill-opacity="1" fill-rule="evenodd"/><path fill="#8c52ff" d="M 383.265625 88.808594 C 373.449219 88.808594 365.511719 96.746094 365.511719 106.566406 C 365.511719 116.382812 373.449219 124.320312 383.265625 124.320312 C 393.085938 124.320312 401.023438 116.382812 401.023438 106.566406 C 401.023438 96.746094 393.085938 88.808594 383.265625 88.808594 Z M 383.265625 88.808594 " fill-opacity="1" fill-rule="evenodd"/><g clip-path="url(#bbc7f2350d)"><path fill="#8c52ff" d="M 428.726562 70.542969 C 421.210938 70.542969 415.15625 76.648438 415.15625 84.113281 C 415.15625 91.625 421.226562 97.679688 428.726562 97.679688 C 436.230469 97.679688 442.296875 91.625 442.296875 84.113281 C 442.296875 76.648438 436.242188 70.542969 428.726562 70.542969 Z M 428.726562 70.542969 " fill-opacity="1" fill-rule="evenodd"/></g><g fill="#000000" fill-opacity="1"><g transform="translate(845.917289, 380.290642)"><g><path d="M 70.90625 2.375 C 58.5 2.375 47.359375 -0.25 37.484375 -5.5 C 27.609375 -10.75 19.847656 -18.054688 14.203125 -27.421875 C 8.566406 -36.785156 5.75 -47.390625 5.75 -59.234375 C 5.75 -71.078125 8.566406 -81.679688 14.203125 -91.046875 C 19.847656 -100.410156 27.609375 -107.710938 37.484375 -112.953125 C 47.359375 -118.203125 58.5 -120.828125 70.90625 -120.828125 C 81.738281 -120.828125 91.5 -118.910156 100.1875 -115.078125 C 108.875 -111.242188 116.09375 -105.71875 121.84375 -98.5 L 100.53125 -79.203125 C 92.851562 -88.453125 83.539062 -93.078125 72.59375 -93.078125 C 66.164062 -93.078125 60.441406 -91.664062 55.421875 -88.84375 C 50.398438 -86.019531 46.503906 -82.039062 43.734375 -76.90625 C 40.972656 -71.78125 39.59375 -65.890625 39.59375 -59.234375 C 39.59375 -52.578125 40.972656 -46.679688 43.734375 -41.546875 C 46.503906 -36.410156 50.398438 -32.429688 55.421875 -29.609375 C 60.441406 -26.796875 66.164062 -25.390625 72.59375 -25.390625 C 83.539062 -25.390625 92.851562 -30.015625 100.53125 -39.265625 L 121.84375 -19.96875 C 116.09375 -12.75 108.875 -7.21875 100.1875 -3.375 C 91.5 0.457031 81.738281 2.375 70.90625 2.375 Z M 70.90625 2.375 "/></g></g></g><g fill="#000000" fill-opacity="1"><g transform="translate(970.816012, 380.290642)"><g><path d="M 71.59375 2.375 C 59.0625 2.375 47.800781 -0.273438 37.8125 -5.578125 C 27.832031 -10.878906 19.992188 -18.210938 14.296875 -27.578125 C 8.597656 -36.941406 5.75 -47.492188 5.75 -59.234375 C 5.75 -70.960938 8.597656 -81.507812 14.296875 -90.875 C 19.992188 -100.238281 27.832031 -107.570312 37.8125 -112.875 C 47.800781 -118.175781 59.0625 -120.828125 71.59375 -120.828125 C 84.113281 -120.828125 95.363281 -118.175781 105.34375 -112.875 C 115.332031 -107.570312 123.175781 -100.238281 128.875 -90.875 C 134.570312 -81.507812 137.421875 -70.960938 137.421875 -59.234375 C 137.421875 -47.492188 134.570312 -36.941406 128.875 -27.578125 C 123.175781 -18.210938 115.332031 -10.878906 105.34375 -5.578125 C 95.363281 -0.273438 84.113281 2.375 71.59375 2.375 Z M 71.59375 -25.390625 C 77.570312 -25.390625 82.984375 -26.796875 87.828125 -29.609375 C 92.679688 -32.429688 96.519531 -36.410156 99.34375 -41.546875 C 102.164062 -46.679688 103.578125 -52.578125 103.578125 -59.234375 C 103.578125 -65.890625 102.164062 -71.78125 99.34375 -76.90625 C 96.519531 -82.039062 92.679688 -86.019531 87.828125 -88.84375 C 82.984375 -91.664062 77.570312 -93.078125 71.59375 -93.078125 C 65.601562 -93.078125 60.179688 -91.664062 55.328125 -88.84375 C 50.484375 -86.019531 46.648438 -82.039062 43.828125 -76.90625 C 41.003906 -71.78125 39.59375 -65.890625 39.59375 -59.234375 C 39.59375 -52.578125 41.003906 -46.679688 43.828125 -41.546875 C 46.648438 -36.410156 50.484375 -32.429688 55.328125 -29.609375 C 60.179688 -26.796875 65.601562 -25.390625 71.59375 -25.390625 Z M 71.59375 -25.390625 "/></g></g></g><g fill="#000000" fill-opacity="1"><g transform="translate(1113.992548, 380.290642)"><g><path d="M 11.84375 -118.46875 L 67.859375 -118.46875 C 80.835938 -118.46875 92.347656 -116.039062 102.390625 -111.1875 C 112.429688 -106.332031 120.210938 -99.445312 125.734375 -90.53125 C 131.265625 -81.625 134.03125 -71.191406 134.03125 -59.234375 C 134.03125 -47.273438 131.265625 -36.835938 125.734375 -27.921875 C 120.210938 -19.003906 112.429688 -12.117188 102.390625 -7.265625 C 92.347656 -2.421875 80.835938 0 67.859375 0 L 11.84375 0 Z M 66.515625 -26.734375 C 76.660156 -26.734375 84.804688 -29.609375 90.953125 -35.359375 C 97.109375 -41.117188 100.1875 -49.078125 100.1875 -59.234375 C 100.1875 -69.390625 97.109375 -77.34375 90.953125 -83.09375 C 84.804688 -88.84375 76.660156 -91.71875 66.515625 -91.71875 L 45.359375 -91.71875 L 45.359375 -26.734375 Z M 66.515625 -26.734375 "/></g></g></g><g fill="#000000" fill-opacity="1"><g transform="translate(1253.784316, 380.290642)"><g><path d="M 106.953125 -25.890625 L 106.953125 0 L 11.84375 0 L 11.84375 -118.46875 L 104.75 -118.46875 L 104.75 -92.578125 L 45.015625 -92.578125 L 45.015625 -72.59375 L 97.640625 -72.59375 L 97.640625 -47.5625 L 45.015625 -47.5625 L 45.015625 -25.890625 Z M 106.953125 -25.890625 "/></g></g></g><g fill="#6604f1" fill-opacity="1"><g transform="translate(853.406507, 561.541491)"><g><path d="M 11.84375 -118.46875 L 45.359375 -118.46875 L 45.359375 -26.5625 L 101.875 -26.5625 L 101.875 0 L 11.84375 0 Z M 11.84375 -118.46875 "/></g></g></g><g fill="#6604f1" fill-opacity="1"><g transform="translate(956.642584, 561.541491)"><g><path d="M 91.21875 -23.015625 L 41.125 -23.015625 L 31.8125 0 L -2.375 0 L 49.921875 -118.46875 L 82.921875 -118.46875 L 135.390625 0 L 100.53125 0 Z M 81.40625 -47.71875 L 66.171875 -85.625 L 50.9375 -47.71875 Z M 81.40625 -47.71875 "/></g></g></g><g fill="#6604f1" fill-opacity="1"><g transform="translate(1089.664753, 561.541491)"><g><path d="M 102.890625 -61.765625 C 109.660156 -59.398438 114.960938 -55.707031 118.796875 -50.6875 C 122.640625 -45.664062 124.5625 -39.601562 124.5625 -32.5 C 124.5625 -22.113281 120.382812 -14.097656 112.03125 -8.453125 C 103.6875 -2.816406 91.613281 0 75.8125 0 L 11.84375 0 L 11.84375 -118.46875 L 72.4375 -118.46875 C 87.550781 -118.46875 99.054688 -115.671875 106.953125 -110.078125 C 114.847656 -104.492188 118.796875 -96.96875 118.796875 -87.5 C 118.796875 -81.851562 117.414062 -76.800781 114.65625 -72.34375 C 111.894531 -67.882812 107.972656 -64.359375 102.890625 -61.765625 Z M 45.015625 -94.265625 L 45.015625 -71.421875 L 68.03125 -71.421875 C 79.3125 -71.421875 84.953125 -75.253906 84.953125 -82.921875 C 84.953125 -90.484375 79.3125 -94.265625 68.03125 -94.265625 Z M 73.109375 -24.203125 C 84.835938 -24.203125 90.703125 -28.207031 90.703125 -36.21875 C 90.703125 -44.226562 84.835938 -48.234375 73.109375 -48.234375 L 45.015625 -48.234375 L 45.015625 -24.203125 Z M 73.109375 -24.203125 "/></g></g></g></svg>