<svg xmlns="http://www.w3.org/2000/svg" xmlns:xlink="http://www.w3.org/1999/xlink" width="500" zoomAndPan="magnify" viewBox="0 0 375 374.999991" height="500" preserveAspectRatio="xMidYMid meet" version="1.0"><defs><clipPath id="880e06d3fb"><path d="M 78 203 L 359.554688 203 L 359.554688 339.375 L 78 339.375 Z M 78 203 " clip-rule="nonzero"/></clipPath><clipPath id="03a3afe3fc"><path d="M 15.304688 73 L 295 73 L 295 213 L 15.304688 213 Z M 15.304688 73 " clip-rule="nonzero"/></clipPath><clipPath id="d2887c1b97"><path d="M 194 35.65625 L 209 35.65625 L 209 50 L 194 50 Z M 194 35.65625 " clip-rule="nonzero"/></clipPath></defs><g clip-path="url(#880e06d3fb)"><path fill="#24006b" d="M 297.855469 217.109375 L 279.808594 217.109375 C 280.296875 220.972656 280.546875 224.90625 280.546875 228.878906 C 280.546875 279.71875 239.359375 320.90625 188.542969 320.90625 C 136.273438 320.90625 99.421875 279.785156 96.628906 233.351562 L 96.628906 233.261719 C 96.585938 232.722656 96.558594 232.1875 96.558594 231.675781 L 133.082031 231.675781 C 136.03125 239.761719 142.53125 245.546875 152.917969 245.546875 C 163.328125 245.546875 174.070312 236.078125 174.070312 224.394531 C 174.070312 212.714844 163.328125 203.246094 152.917969 203.246094 C 142.53125 203.246094 136.03125 209.03125 133.082031 217.117188 L 79.207031 217.117188 C 78.761719 221.109375 78.539062 225.179688 78.539062 229.3125 C 78.539062 290.070312 127.792969 339.320312 188.546875 339.320312 C 248.5 339.320312 297.261719 291.34375 298.507812 231.683594 L 318.675781 231.683594 C 321.644531 239.769531 329.421875 245.554688 338.53125 245.554688 C 350.214844 245.554688 359.683594 236.085938 359.683594 224.402344 C 359.683594 212.722656 350.214844 203.25 338.53125 203.25 C 329.421875 203.25 321.644531 209.035156 318.675781 217.121094 L 297.855469 217.121094 Z M 338.53125 215.972656 C 333.882812 215.972656 330.109375 219.746094 330.109375 224.394531 C 330.109375 229.046875 333.882812 232.820312 338.53125 232.820312 C 343.183594 232.820312 346.957031 229.046875 346.957031 224.394531 C 346.957031 219.746094 343.175781 215.972656 338.53125 215.972656 Z M 152.917969 215.972656 C 148.269531 215.972656 144.523438 219.746094 144.523438 224.394531 C 144.523438 229.046875 148.277344 232.820312 152.917969 232.820312 C 157.589844 232.820312 161.34375 229.046875 161.34375 224.394531 C 161.34375 219.746094 157.589844 215.972656 152.917969 215.972656 Z M 152.917969 215.972656 " fill-opacity="1" fill-rule="evenodd"/></g><g clip-path="url(#03a3afe3fc)"><path fill="#8c52ff" d="M 161.292969 121.6875 C 128.171875 130.085938 101.007812 153.445312 87.40625 184.136719 L 56.292969 184.136719 C 53.34375 176.050781 45.570312 170.289062 36.4375 170.289062 C 24.777344 170.292969 15.304688 179.742188 15.304688 191.425781 C 15.304688 203.105469 24.777344 212.578125 36.4375 212.578125 C 45.570312 212.578125 53.34375 206.792969 56.292969 198.707031 L 101.59375 198.707031 C 114.082031 162.726562 148.296875 136.875 188.546875 136.875 C 223.125 136.875 253.238281 155.949219 268.960938 184.136719 L 239.921875 184.136719 C 236.976562 176.050781 229.199219 170.289062 220.066406 170.289062 C 208.40625 170.289062 198.933594 179.738281 198.933594 191.417969 C 198.933594 203.101562 208.40625 212.570312 220.066406 212.570312 C 229.199219 212.570312 236.976562 206.785156 239.921875 198.699219 L 294.941406 198.699219 C 284.246094 160.925781 253.972656 131.378906 215.78125 121.679688 L 215.78125 94.542969 L 224.785156 94.542969 C 230.636719 94.542969 235.4375 89.742188 235.4375 83.867188 C 235.4375 77.992188 230.636719 73.191406 224.785156 73.191406 L 210.445312 73.191406 C 211.492188 75.5625 212.078125 78.171875 212.078125 80.921875 C 212.078125 91.417969 203.5625 99.953125 193.066406 99.953125 C 182.550781 99.953125 174.035156 91.417969 174.035156 80.921875 C 174.035156 78.171875 174.613281 75.5625 175.667969 73.191406 L 152.328125 73.191406 C 146.453125 73.191406 141.652344 77.992188 141.652344 83.867188 C 141.652344 89.742188 146.453125 94.542969 152.328125 94.542969 L 161.308594 94.542969 L 161.308594 121.6875 Z M 220.058594 183 C 224.730469 183 228.484375 186.777344 228.484375 191.425781 C 228.484375 196.074219 224.730469 199.847656 220.058594 199.847656 C 215.410156 199.847656 211.636719 196.074219 211.636719 191.425781 C 211.636719 186.777344 215.417969 183 220.058594 183 Z M 36.4375 183 C 41.105469 183 44.859375 186.777344 44.859375 191.425781 C 44.859375 196.074219 41.105469 199.847656 36.4375 199.847656 C 31.789062 199.847656 28.011719 196.074219 28.011719 191.425781 C 28.035156 186.777344 31.789062 183 36.4375 183 Z M 36.4375 183 " fill-opacity="1" fill-rule="evenodd"/></g><path fill="#8c52ff" d="M 193.054688 69.027344 C 186.460938 69.027344 181.152344 74.363281 181.152344 80.929688 C 181.152344 87.492188 186.46875 92.828125 193.054688 92.828125 C 199.617188 92.828125 204.933594 87.492188 204.933594 80.929688 C 204.933594 74.363281 199.625 69.027344 193.054688 69.027344 Z M 193.054688 69.027344 " fill-opacity="1" fill-rule="evenodd"/><path fill="#8c52ff" d="M 177.957031 45.257812 C 172.816406 45.257812 168.664062 49.410156 168.664062 54.546875 C 168.664062 59.6875 172.816406 63.839844 177.957031 63.839844 C 183.09375 63.839844 187.246094 59.6875 187.246094 54.546875 C 187.246094 49.410156 183.09375 45.257812 177.957031 45.257812 Z M 177.957031 45.257812 " fill-opacity="1" fill-rule="evenodd"/><g clip-path="url(#d2887c1b97)"><path fill="#8c52ff" d="M 201.746094 35.695312 C 197.8125 35.695312 194.644531 38.894531 194.644531 42.796875 C 194.644531 46.730469 197.820312 49.898438 201.746094 49.898438 C 205.671875 49.898438 208.847656 46.730469 208.847656 42.796875 C 208.847656 38.894531 205.679688 35.695312 201.746094 35.695312 Z M 201.746094 35.695312 " fill-opacity="1" fill-rule="evenodd"/></g></svg>