<svg xmlns="http://www.w3.org/2000/svg" xmlns:xlink="http://www.w3.org/1999/xlink" width="1920" zoomAndPan="magnify" viewBox="0 0 1440 809.999993" height="1080" preserveAspectRatio="xMidYMid meet" version="1.0"><defs><g/><clipPath id="5e7d59472b"><path d="M 151 428 L 564.265625 428 L 564.265625 628.164062 L 151 628.164062 Z M 151 428 " clip-rule="nonzero"/></clipPath><clipPath id="1177e6f52e"><path d="M 58.765625 237 L 470 237 L 470 442 L 58.765625 442 Z M 58.765625 237 " clip-rule="nonzero"/></clipPath></defs><g clip-path="url(#5e7d59472b)"><path fill="#24006b" d="M 473.796875 448.492188 L 447.292969 448.492188 C 448.011719 454.167969 448.375 459.945312 448.375 465.78125 C 448.375 540.457031 387.875 600.957031 313.230469 600.957031 C 236.453125 600.957031 182.328125 540.558594 178.21875 472.347656 L 178.21875 472.21875 C 178.160156 471.429688 178.117188 470.640625 178.117188 469.890625 L 231.769531 469.890625 C 236.097656 481.769531 245.648438 490.265625 260.90625 490.265625 C 276.191406 490.265625 291.976562 476.355469 291.976562 459.195312 C 291.976562 442.039062 276.191406 428.128906 260.90625 428.128906 C 245.648438 428.128906 236.097656 436.625 231.769531 448.503906 L 152.632812 448.503906 C 151.976562 454.371094 151.652344 460.351562 151.652344 466.421875 C 151.652344 555.664062 224 628.007812 313.242188 628.007812 C 401.300781 628.007812 472.929688 557.535156 474.757812 469.902344 L 504.382812 469.902344 C 508.742188 481.777344 520.164062 490.277344 533.550781 490.277344 C 550.707031 490.277344 564.617188 476.363281 564.617188 459.207031 C 564.617188 442.046875 550.707031 428.136719 533.550781 428.136719 C 520.164062 428.136719 508.742188 436.636719 504.382812 448.511719 L 473.796875 448.511719 Z M 533.550781 446.824219 C 526.71875 446.824219 521.175781 452.367188 521.175781 459.195312 C 521.175781 466.027344 526.71875 471.570312 533.550781 471.570312 C 540.378906 471.570312 545.921875 466.027344 545.921875 459.195312 C 545.921875 452.367188 540.367188 446.824219 533.550781 446.824219 Z M 260.90625 446.824219 C 254.078125 446.824219 248.574219 452.367188 248.574219 459.195312 C 248.574219 466.027344 254.085938 471.570312 260.90625 471.570312 C 267.765625 471.570312 273.277344 466.027344 273.277344 459.195312 C 273.277344 452.367188 267.765625 446.824219 260.90625 446.824219 Z M 260.90625 446.824219 " fill-opacity="1" fill-rule="evenodd"/></g><g clip-path="url(#1177e6f52e)"><path fill="#8c52ff" d="M 273.207031 308.332031 C 224.554688 320.664062 184.652344 354.980469 164.671875 400.0625 L 118.972656 400.0625 C 114.644531 388.183594 103.222656 379.71875 89.804688 379.71875 C 72.679688 379.726562 58.765625 393.609375 58.765625 410.765625 C 58.765625 427.925781 72.679688 441.835938 89.804688 441.835938 C 103.222656 441.835938 114.644531 433.335938 118.972656 421.460938 L 185.511719 421.460938 C 203.855469 368.609375 254.117188 330.640625 313.242188 330.640625 C 364.027344 330.640625 408.261719 358.652344 431.355469 400.0625 L 388.703125 400.0625 C 384.375 388.183594 372.953125 379.71875 359.535156 379.71875 C 342.410156 379.71875 328.496094 393.597656 328.496094 410.757812 C 328.496094 427.914062 342.410156 441.824219 359.535156 441.824219 C 372.953125 441.824219 384.375 433.328125 388.703125 421.449219 L 469.519531 421.449219 C 453.808594 365.96875 409.34375 322.566406 353.242188 308.320312 L 353.242188 268.460938 L 366.464844 268.460938 C 375.066406 268.460938 382.117188 261.410156 382.117188 252.777344 C 382.117188 244.148438 375.066406 237.097656 366.464844 237.097656 L 345.402344 237.097656 C 346.941406 240.578125 347.800781 244.410156 347.800781 248.449219 C 347.800781 263.867188 335.296875 276.402344 319.878906 276.402344 C 304.429688 276.402344 291.925781 263.867188 291.925781 248.449219 C 291.925781 244.410156 292.773438 240.578125 294.320312 237.097656 L 260.035156 237.097656 C 251.40625 237.097656 244.355469 244.148438 244.355469 252.777344 C 244.355469 261.410156 251.40625 268.460938 260.035156 268.460938 L 273.226562 268.460938 L 273.226562 308.332031 Z M 359.527344 398.394531 C 366.386719 398.394531 371.898438 403.9375 371.898438 410.765625 C 371.898438 417.59375 366.386719 423.140625 359.527344 423.140625 C 352.699219 423.140625 347.152344 417.59375 347.152344 410.765625 C 347.152344 403.9375 352.707031 398.394531 359.527344 398.394531 Z M 89.804688 398.394531 C 96.664062 398.394531 102.179688 403.9375 102.179688 410.765625 C 102.179688 417.59375 96.664062 423.140625 89.804688 423.140625 C 82.976562 423.140625 77.433594 417.59375 77.433594 410.765625 C 77.464844 403.9375 82.976562 398.394531 89.804688 398.394531 Z M 89.804688 398.394531 " fill-opacity="1" fill-rule="evenodd"/></g><path fill="#8c52ff" d="M 319.859375 230.976562 C 310.175781 230.976562 302.375 238.816406 302.375 248.457031 C 302.375 258.101562 310.1875 265.941406 319.859375 265.941406 C 329.5 265.941406 337.308594 258.101562 337.308594 248.457031 C 337.308594 238.816406 329.507812 230.976562 319.859375 230.976562 Z M 319.859375 230.976562 " fill-opacity="1" fill-rule="evenodd"/><path fill="#8c52ff" d="M 297.679688 196.0625 C 290.132812 196.0625 284.03125 202.164062 284.03125 209.710938 C 284.03125 217.257812 290.132812 223.359375 297.679688 223.359375 C 305.226562 223.359375 311.328125 217.257812 311.328125 209.710938 C 311.328125 202.164062 305.226562 196.0625 297.679688 196.0625 Z M 297.679688 196.0625 " fill-opacity="1" fill-rule="evenodd"/><path fill="#8c52ff" d="M 332.625 182.019531 C 326.847656 182.019531 322.195312 186.714844 322.195312 192.449219 C 322.195312 198.226562 326.859375 202.882812 332.625 202.882812 C 338.390625 202.882812 343.054688 198.226562 343.054688 192.449219 C 343.054688 186.714844 338.402344 182.019531 332.625 182.019531 Z M 332.625 182.019531 " fill-opacity="1" fill-rule="evenodd"/><g fill="#000000" fill-opacity="1"><g transform="translate(610.264302, 528.272702)"><g><path d="M 54.515625 1.828125 C 44.972656 1.828125 36.40625 -0.1875 28.8125 -4.21875 C 21.226562 -8.257812 15.265625 -13.878906 10.921875 -21.078125 C 6.585938 -28.273438 4.421875 -36.425781 4.421875 -45.53125 C 4.421875 -54.632812 6.585938 -62.785156 10.921875 -69.984375 C 15.265625 -77.179688 21.226562 -82.796875 28.8125 -86.828125 C 36.40625 -90.867188 44.972656 -92.890625 54.515625 -92.890625 C 62.835938 -92.890625 70.335938 -91.414062 77.015625 -88.46875 C 83.691406 -85.519531 89.242188 -81.269531 93.671875 -75.71875 L 77.28125 -60.890625 C 71.375 -67.992188 64.21875 -71.546875 55.8125 -71.546875 C 50.863281 -71.546875 46.457031 -70.460938 42.59375 -68.296875 C 38.738281 -66.128906 35.75 -63.070312 33.625 -59.125 C 31.5 -55.175781 30.4375 -50.644531 30.4375 -45.53125 C 30.4375 -40.414062 31.5 -35.882812 33.625 -31.9375 C 35.75 -27.988281 38.738281 -24.929688 42.59375 -22.765625 C 46.457031 -20.597656 50.863281 -19.515625 55.8125 -19.515625 C 64.21875 -19.515625 71.375 -23.070312 77.28125 -30.1875 L 93.671875 -15.34375 C 89.242188 -9.800781 83.691406 -5.550781 77.015625 -2.59375 C 70.335938 0.351562 62.835938 1.828125 54.515625 1.828125 Z M 54.515625 1.828125 "/></g></g></g><g fill="#000000" fill-opacity="1"><g transform="translate(706.268498, 528.272702)"><g><path d="M 55.03125 1.828125 C 45.40625 1.828125 36.753906 -0.207031 29.078125 -4.28125 C 21.398438 -8.363281 15.367188 -14.003906 10.984375 -21.203125 C 6.609375 -28.398438 4.421875 -36.507812 4.421875 -45.53125 C 4.421875 -54.550781 6.609375 -62.660156 10.984375 -69.859375 C 15.367188 -77.054688 21.398438 -82.691406 29.078125 -86.765625 C 36.753906 -90.847656 45.40625 -92.890625 55.03125 -92.890625 C 64.65625 -92.890625 73.304688 -90.847656 80.984375 -86.765625 C 88.660156 -82.691406 94.6875 -77.054688 99.0625 -69.859375 C 103.445312 -62.660156 105.640625 -54.550781 105.640625 -45.53125 C 105.640625 -36.507812 103.445312 -28.398438 99.0625 -21.203125 C 94.6875 -14.003906 88.660156 -8.363281 80.984375 -4.28125 C 73.304688 -0.207031 64.65625 1.828125 55.03125 1.828125 Z M 55.03125 -19.515625 C 59.625 -19.515625 63.785156 -20.597656 67.515625 -22.765625 C 71.242188 -24.929688 74.191406 -27.988281 76.359375 -31.9375 C 78.535156 -35.882812 79.625 -40.414062 79.625 -45.53125 C 79.625 -50.644531 78.535156 -55.175781 76.359375 -59.125 C 74.191406 -63.070312 71.242188 -66.128906 67.515625 -68.296875 C 63.785156 -70.460938 59.625 -71.546875 55.03125 -71.546875 C 50.4375 -71.546875 46.273438 -70.460938 42.546875 -68.296875 C 38.816406 -66.128906 35.863281 -63.070312 33.6875 -59.125 C 31.519531 -55.175781 30.4375 -50.644531 30.4375 -45.53125 C 30.4375 -40.414062 31.519531 -35.882812 33.6875 -31.9375 C 35.863281 -27.988281 38.816406 -24.929688 42.546875 -22.765625 C 46.273438 -20.597656 50.4375 -19.515625 55.03125 -19.515625 Z M 55.03125 -19.515625 "/></g></g></g><g fill="#000000" fill-opacity="1"><g transform="translate(816.32205, 528.272702)"><g><path d="M 9.109375 -91.0625 L 52.171875 -91.0625 C 62.140625 -91.0625 70.984375 -89.195312 78.703125 -85.46875 C 86.421875 -81.738281 92.40625 -76.445312 96.65625 -69.59375 C 100.90625 -62.75 103.03125 -54.726562 103.03125 -45.53125 C 103.03125 -36.34375 100.90625 -28.320312 96.65625 -21.46875 C 92.40625 -14.613281 86.421875 -9.320312 78.703125 -5.59375 C 70.984375 -1.863281 62.140625 0 52.171875 0 L 9.109375 0 Z M 51.125 -20.5625 C 58.925781 -20.5625 65.191406 -22.769531 69.921875 -27.1875 C 74.648438 -31.613281 77.015625 -37.726562 77.015625 -45.53125 C 77.015625 -53.332031 74.648438 -59.445312 69.921875 -63.875 C 65.191406 -68.300781 58.925781 -70.515625 51.125 -70.515625 L 34.859375 -70.515625 L 34.859375 -20.5625 Z M 51.125 -20.5625 "/></g></g></g><g fill="#000000" fill-opacity="1"><g transform="translate(923.77388, 528.272702)"><g><path d="M 82.21875 -19.90625 L 82.21875 0 L 9.109375 0 L 9.109375 -91.0625 L 80.53125 -91.0625 L 80.53125 -71.15625 L 34.609375 -71.15625 L 34.609375 -55.8125 L 75.0625 -55.8125 L 75.0625 -36.5625 L 34.609375 -36.5625 L 34.609375 -19.90625 Z M 82.21875 -19.90625 "/></g></g></g><g fill="#6604f1" fill-opacity="1"><g transform="translate(1034.227562, 528.272702)"><g><path d="M 9.109375 -91.0625 L 34.859375 -91.0625 L 34.859375 -20.421875 L 78.3125 -20.421875 L 78.3125 0 L 9.109375 0 Z M 9.109375 -91.0625 "/></g></g></g><g fill="#6604f1" fill-opacity="1"><g transform="translate(1113.580628, 528.272702)"><g><path d="M 70.125 -17.6875 L 31.609375 -17.6875 L 24.453125 0 L -1.828125 0 L 38.375 -91.0625 L 63.75 -91.0625 L 104.078125 0 L 77.28125 0 Z M 62.578125 -36.6875 L 50.859375 -65.828125 L 39.15625 -36.6875 Z M 62.578125 -36.6875 "/></g></g></g><g fill="#6604f1" fill-opacity="1"><g transform="translate(1215.828961, 528.272702)"><g><path d="M 79.09375 -47.484375 C 84.300781 -45.660156 88.378906 -42.816406 91.328125 -38.953125 C 94.273438 -35.097656 95.75 -30.441406 95.75 -24.984375 C 95.75 -17.003906 92.539062 -10.84375 86.125 -6.5 C 79.707031 -2.164062 70.425781 0 58.28125 0 L 9.109375 0 L 9.109375 -91.0625 L 55.6875 -91.0625 C 67.300781 -91.0625 76.144531 -88.914062 82.21875 -84.625 C 88.289062 -80.332031 91.328125 -74.546875 91.328125 -67.265625 C 91.328125 -62.921875 90.265625 -59.035156 88.140625 -55.609375 C 86.015625 -52.179688 83 -49.472656 79.09375 -47.484375 Z M 34.609375 -72.46875 L 34.609375 -54.90625 L 52.296875 -54.90625 C 60.972656 -54.90625 65.3125 -57.851562 65.3125 -63.75 C 65.3125 -69.5625 60.972656 -72.46875 52.296875 -72.46875 Z M 56.203125 -18.609375 C 65.222656 -18.609375 69.734375 -21.6875 69.734375 -27.84375 C 69.734375 -34 65.222656 -37.078125 56.203125 -37.078125 L 34.609375 -37.078125 L 34.609375 -18.609375 Z M 56.203125 -18.609375 "/></g></g></g></svg>