<svg xmlns="http://www.w3.org/2000/svg" xmlns:xlink="http://www.w3.org/1999/xlink" width="1920" zoomAndPan="magnify" viewBox="0 0 1440 809.999993" height="1080" preserveAspectRatio="xMidYMid meet" version="1.0"><defs><g/><clipPath id="3a448c4e3a"><path d="M 617 394 L 996.363281 394 L 996.363281 578.433594 L 617 578.433594 Z M 617 394 " clip-rule="nonzero"/></clipPath><clipPath id="322d31c75c"><path d="M 532.113281 219 L 910 219 L 910 408 L 532.113281 408 Z M 532.113281 219 " clip-rule="nonzero"/></clipPath></defs><rect x="-144" width="1728" fill="#ffffff" y="-80.999999" height="971.999992" fill-opacity="1"/><rect x="-144" width="1728" fill="#6604f1" y="-80.999999" height="971.999992" fill-opacity="1"/><g clip-path="url(#3a448c4e3a)"><path fill="#24006b" d="M 913.070312 413.621094 L 888.738281 413.621094 C 889.398438 418.832031 889.734375 424.132812 889.734375 429.492188 C 889.734375 498.035156 834.199219 553.570312 765.6875 553.570312 C 695.210938 553.570312 645.527344 498.128906 641.757812 435.519531 L 641.757812 435.398438 C 641.703125 434.675781 641.664062 433.949219 641.664062 433.261719 L 690.910156 433.261719 C 694.886719 444.164062 703.652344 451.964844 717.65625 451.964844 C 731.6875 451.964844 746.175781 439.195312 746.175781 423.449219 C 746.175781 407.699219 731.6875 394.929688 717.65625 394.929688 C 703.652344 394.929688 694.886719 402.730469 690.910156 413.632812 L 618.273438 413.632812 C 617.667969 419.019531 617.371094 424.507812 617.371094 430.078125 C 617.371094 511.992188 683.78125 578.402344 765.695312 578.402344 C 846.523438 578.402344 912.273438 513.710938 913.953125 433.273438 L 941.144531 433.273438 C 945.144531 444.175781 955.628906 451.976562 967.914062 451.976562 C 983.664062 451.976562 996.433594 439.207031 996.433594 423.457031 C 996.433594 407.707031 983.664062 394.9375 967.914062 394.9375 C 955.628906 394.9375 945.144531 402.738281 941.144531 413.640625 L 913.070312 413.640625 Z M 967.914062 412.089844 C 961.648438 412.089844 956.558594 417.179688 956.558594 423.449219 C 956.558594 429.714844 961.648438 434.804688 967.914062 434.804688 C 974.183594 434.804688 979.273438 429.714844 979.273438 423.449219 C 979.273438 417.179688 974.175781 412.089844 967.914062 412.089844 Z M 717.65625 412.089844 C 711.386719 412.089844 706.335938 417.179688 706.335938 423.449219 C 706.335938 429.714844 711.398438 434.804688 717.65625 434.804688 C 723.953125 434.804688 729.015625 429.714844 729.015625 423.449219 C 729.015625 417.179688 723.953125 412.089844 717.65625 412.089844 Z M 717.65625 412.089844 " fill-opacity="1" fill-rule="evenodd"/></g><g clip-path="url(#322d31c75c)"><path fill="#ffffff" d="M 728.949219 284.96875 C 684.289062 296.289062 647.664062 327.789062 629.324219 369.167969 L 587.378906 369.167969 C 583.402344 358.265625 572.917969 350.492188 560.605469 350.492188 C 544.882812 350.503906 532.113281 363.242188 532.113281 378.992188 C 532.113281 394.742188 544.882812 407.511719 560.605469 407.511719 C 572.917969 407.511719 583.402344 399.710938 587.378906 388.808594 L 648.453125 388.808594 C 665.289062 340.296875 711.425781 305.445312 765.695312 305.445312 C 812.3125 305.445312 852.914062 331.160156 874.113281 369.167969 L 834.960938 369.167969 C 830.988281 358.265625 820.503906 350.492188 808.191406 350.492188 C 792.46875 350.492188 779.699219 363.234375 779.699219 378.984375 C 779.699219 394.734375 792.46875 407.503906 808.191406 407.503906 C 820.503906 407.503906 830.988281 399.703125 834.960938 388.800781 L 909.140625 388.800781 C 894.71875 337.875 853.90625 298.035156 802.414062 284.960938 L 802.414062 248.371094 L 814.550781 248.371094 C 822.445312 248.371094 828.917969 241.898438 828.917969 233.976562 C 828.917969 226.054688 822.445312 219.582031 814.550781 219.582031 L 795.214844 219.582031 C 796.628906 222.777344 797.417969 226.296875 797.417969 230.003906 C 797.417969 244.15625 785.941406 255.660156 771.785156 255.660156 C 757.605469 255.660156 746.128906 244.15625 746.128906 230.003906 C 746.128906 226.296875 746.910156 222.777344 748.328125 219.582031 L 716.859375 219.582031 C 708.9375 219.582031 702.464844 226.054688 702.464844 233.976562 C 702.464844 241.898438 708.9375 248.371094 716.859375 248.371094 L 728.96875 248.371094 L 728.96875 284.96875 Z M 808.179688 367.636719 C 814.476562 367.636719 819.539062 372.726562 819.539062 378.992188 C 819.539062 385.261719 814.476562 390.351562 808.179688 390.351562 C 801.914062 390.351562 796.824219 385.261719 796.824219 378.992188 C 796.824219 372.726562 801.921875 367.636719 808.179688 367.636719 Z M 560.605469 367.636719 C 566.902344 367.636719 571.960938 372.726562 571.960938 378.992188 C 571.960938 385.261719 566.902344 390.351562 560.605469 390.351562 C 554.335938 390.351562 549.246094 385.261719 549.246094 378.992188 C 549.277344 372.726562 554.335938 367.636719 560.605469 367.636719 Z M 560.605469 367.636719 " fill-opacity="1" fill-rule="evenodd"/></g><path fill="#ffffff" d="M 771.769531 213.964844 C 762.882812 213.964844 755.722656 221.160156 755.722656 230.011719 C 755.722656 238.863281 762.890625 246.058594 771.769531 246.058594 C 780.617188 246.058594 787.789062 238.863281 787.789062 230.011719 C 787.789062 221.160156 780.628906 213.964844 771.769531 213.964844 Z M 771.769531 213.964844 " fill-opacity="1" fill-rule="evenodd"/><path fill="#ffffff" d="M 751.414062 181.917969 C 744.484375 181.917969 738.886719 187.515625 738.886719 194.445312 C 738.886719 201.371094 744.484375 206.972656 751.414062 206.972656 C 758.339844 206.972656 763.941406 201.371094 763.941406 194.445312 C 763.941406 187.515625 758.339844 181.917969 751.414062 181.917969 Z M 751.414062 181.917969 " fill-opacity="1" fill-rule="evenodd"/><path fill="#ffffff" d="M 783.488281 169.027344 C 778.183594 169.027344 773.914062 173.335938 773.914062 178.601562 C 773.914062 183.90625 778.195312 188.175781 783.488281 188.175781 C 788.78125 188.175781 793.0625 183.90625 793.0625 178.601562 C 793.0625 173.335938 788.789062 169.027344 783.488281 169.027344 Z M 783.488281 169.027344 " fill-opacity="1" fill-rule="evenodd"/><g fill="#ffffff" fill-opacity="1"><g transform="translate(107.249088, 451.506809)"><g><path d="M 50.03125 1.671875 C 41.269531 1.671875 33.40625 -0.175781 26.4375 -3.875 C 19.476562 -7.582031 14.007812 -12.738281 10.03125 -19.34375 C 6.050781 -25.945312 4.0625 -33.429688 4.0625 -41.796875 C 4.0625 -50.148438 6.050781 -57.628906 10.03125 -64.234375 C 14.007812 -70.847656 19.476562 -76.003906 26.4375 -79.703125 C 33.40625 -83.398438 41.269531 -85.25 50.03125 -85.25 C 57.675781 -85.25 64.5625 -83.894531 70.6875 -81.1875 C 76.8125 -78.488281 81.90625 -74.59375 85.96875 -69.5 L 70.921875 -55.875 C 65.515625 -62.40625 58.945312 -65.671875 51.21875 -65.671875 C 46.6875 -65.671875 42.648438 -64.675781 39.109375 -62.6875 C 35.566406 -60.695312 32.816406 -57.890625 30.859375 -54.265625 C 28.910156 -50.648438 27.9375 -46.492188 27.9375 -41.796875 C 27.9375 -37.097656 28.910156 -32.9375 30.859375 -29.3125 C 32.816406 -25.6875 35.566406 -22.878906 39.109375 -20.890625 C 42.648438 -18.898438 46.6875 -17.90625 51.21875 -17.90625 C 58.945312 -17.90625 65.515625 -21.171875 70.921875 -27.703125 L 85.96875 -14.09375 C 81.90625 -9 76.8125 -5.097656 70.6875 -2.390625 C 64.5625 0.316406 57.675781 1.671875 50.03125 1.671875 Z M 50.03125 1.671875 "/></g></g></g><g fill="#ffffff" fill-opacity="1"><g transform="translate(195.370901, 451.506809)"><g><path d="M 50.515625 1.671875 C 41.671875 1.671875 33.726562 -0.195312 26.6875 -3.9375 C 19.644531 -7.675781 14.113281 -12.847656 10.09375 -19.453125 C 6.070312 -26.066406 4.0625 -33.515625 4.0625 -41.796875 C 4.0625 -50.066406 6.070312 -57.503906 10.09375 -64.109375 C 14.113281 -70.722656 19.644531 -75.898438 26.6875 -79.640625 C 33.726562 -83.378906 41.671875 -85.25 50.515625 -85.25 C 59.347656 -85.25 67.285156 -83.378906 74.328125 -79.640625 C 81.367188 -75.898438 86.898438 -70.722656 90.921875 -64.109375 C 94.941406 -57.503906 96.953125 -50.066406 96.953125 -41.796875 C 96.953125 -33.515625 94.941406 -26.066406 90.921875 -19.453125 C 86.898438 -12.847656 81.367188 -7.675781 74.328125 -3.9375 C 67.285156 -0.195312 59.347656 1.671875 50.515625 1.671875 Z M 50.515625 -17.90625 C 54.734375 -17.90625 58.550781 -18.898438 61.96875 -20.890625 C 65.394531 -22.878906 68.101562 -25.6875 70.09375 -29.3125 C 72.082031 -32.9375 73.078125 -37.097656 73.078125 -41.796875 C 73.078125 -46.492188 72.082031 -50.648438 70.09375 -54.265625 C 68.101562 -57.890625 65.394531 -60.695312 61.96875 -62.6875 C 58.550781 -64.675781 54.734375 -65.671875 50.515625 -65.671875 C 46.296875 -65.671875 42.472656 -64.675781 39.046875 -62.6875 C 35.617188 -60.695312 32.910156 -57.890625 30.921875 -54.265625 C 28.929688 -50.648438 27.9375 -46.492188 27.9375 -41.796875 C 27.9375 -37.097656 28.929688 -32.9375 30.921875 -29.3125 C 32.910156 -25.6875 35.617188 -22.878906 39.046875 -20.890625 C 42.472656 -18.898438 46.296875 -17.90625 50.515625 -17.90625 Z M 50.515625 -17.90625 "/></g></g></g><g fill="#ffffff" fill-opacity="1"><g transform="translate(296.388556, 451.506809)"><g><path d="M 8.359375 -83.578125 L 47.875 -83.578125 C 57.03125 -83.578125 65.148438 -81.863281 72.234375 -78.4375 C 79.328125 -75.019531 84.820312 -70.164062 88.71875 -63.875 C 92.613281 -57.59375 94.5625 -50.234375 94.5625 -41.796875 C 94.5625 -33.359375 92.613281 -25.992188 88.71875 -19.703125 C 84.820312 -13.410156 79.328125 -8.550781 72.234375 -5.125 C 65.148438 -1.707031 57.03125 0 47.875 0 L 8.359375 0 Z M 46.921875 -18.859375 C 54.085938 -18.859375 59.835938 -20.890625 64.171875 -24.953125 C 68.515625 -29.015625 70.6875 -34.628906 70.6875 -41.796875 C 70.6875 -48.953125 68.515625 -54.5625 64.171875 -58.625 C 59.835938 -62.6875 54.085938 -64.71875 46.921875 -64.71875 L 32 -64.71875 L 32 -18.859375 Z M 46.921875 -18.859375 "/></g></g></g><g fill="#ffffff" fill-opacity="1"><g transform="translate(395.0181, 451.506809)"><g><path d="M 75.46875 -18.265625 L 75.46875 0 L 8.359375 0 L 8.359375 -83.578125 L 73.90625 -83.578125 L 73.90625 -65.3125 L 31.765625 -65.3125 L 31.765625 -51.21875 L 68.890625 -51.21875 L 68.890625 -33.546875 L 31.765625 -33.546875 L 31.765625 -18.265625 Z M 75.46875 -18.265625 "/></g></g></g><g fill="#ffffff" fill-opacity="1"><g transform="translate(1056.126289, 451.463264)"><g><path d="M 8.359375 -83.578125 L 32 -83.578125 L 32 -18.75 L 71.875 -18.75 L 71.875 0 L 8.359375 0 Z M 8.359375 -83.578125 "/></g></g></g><g fill="#ffffff" fill-opacity="1"><g transform="translate(1128.956851, 451.463264)"><g><path d="M 64.359375 -16.234375 L 29.015625 -16.234375 L 22.453125 0 L -1.671875 0 L 35.21875 -83.578125 L 58.515625 -83.578125 L 95.53125 0 L 70.921875 0 Z M 57.4375 -33.671875 L 46.6875 -60.421875 L 35.9375 -33.671875 Z M 57.4375 -33.671875 "/></g></g></g><g fill="#ffffff" fill-opacity="1"><g transform="translate(1222.800823, 451.463264)"><g><path d="M 72.59375 -43.578125 C 77.375 -41.910156 81.117188 -39.304688 83.828125 -35.765625 C 86.535156 -32.222656 87.890625 -27.941406 87.890625 -22.921875 C 87.890625 -15.597656 84.941406 -9.945312 79.046875 -5.96875 C 73.148438 -1.988281 64.632812 0 53.5 0 L 8.359375 0 L 8.359375 -83.578125 L 51.109375 -83.578125 C 61.773438 -83.578125 69.894531 -81.609375 75.46875 -77.671875 C 81.039062 -73.734375 83.828125 -68.421875 83.828125 -61.734375 C 83.828125 -57.753906 82.847656 -54.191406 80.890625 -51.046875 C 78.941406 -47.898438 76.175781 -45.410156 72.59375 -43.578125 Z M 31.765625 -66.515625 L 31.765625 -50.390625 L 48 -50.390625 C 55.957031 -50.390625 59.9375 -53.097656 59.9375 -58.515625 C 59.9375 -63.847656 55.957031 -66.515625 48 -66.515625 Z M 51.578125 -17.078125 C 59.859375 -17.078125 64 -19.898438 64 -25.546875 C 64 -31.203125 59.859375 -34.03125 51.578125 -34.03125 L 31.765625 -34.03125 L 31.765625 -17.078125 Z M 51.578125 -17.078125 "/></g></g></g></svg>