<svg xmlns="http://www.w3.org/2000/svg" xmlns:xlink="http://www.w3.org/1999/xlink" width="1920" zoomAndPan="magnify" viewBox="0 0 1440 809.999993" height="1080" preserveAspectRatio="xMidYMid meet" version="1.0"><defs><g/><clipPath id="cfc655b0d5"><path d="M 58.765625 156.277344 L 564.628906 156.277344 L 564.628906 662.136719 L 58.765625 662.136719 Z M 58.765625 156.277344 " clip-rule="nonzero"/></clipPath><clipPath id="9367282a74"><path d="M 311.699219 156.277344 C 172.007812 156.277344 58.765625 269.519531 58.765625 409.207031 C 58.765625 548.898438 172.007812 662.136719 311.699219 662.136719 C 451.386719 662.136719 564.628906 548.898438 564.628906 409.207031 C 564.628906 269.519531 451.386719 156.277344 311.699219 156.277344 Z M 311.699219 156.277344 " clip-rule="nonzero"/></clipPath><clipPath id="7e618eb182"><path d="M 151 394 L 564.265625 394 L 564.265625 594 L 151 594 Z M 151 394 " clip-rule="nonzero"/></clipPath><clipPath id="3aaf0d356c"><path d="M 58.765625 203 L 470 203 L 470 408 L 58.765625 408 Z M 58.765625 203 " clip-rule="nonzero"/></clipPath><clipPath id="430e52c7b9"><path d="M 322 147.863281 L 344 147.863281 L 344 169 L 322 169 Z M 322 147.863281 " clip-rule="nonzero"/></clipPath></defs><g clip-path="url(#cfc655b0d5)"><g clip-path="url(#9367282a74)"><path fill="#ede3ff" d="M 58.765625 156.277344 L 564.628906 156.277344 L 564.628906 662.136719 L 58.765625 662.136719 Z M 58.765625 156.277344 " fill-opacity="1" fill-rule="nonzero"/></g></g><g clip-path="url(#7e618eb182)"><path fill="#24006b" d="M 473.796875 414.394531 L 447.292969 414.394531 C 448.011719 420.070312 448.375 425.847656 448.375 431.683594 C 448.375 506.359375 387.875 566.855469 313.230469 566.855469 C 236.453125 566.855469 182.328125 506.457031 178.21875 438.25 L 178.21875 438.117188 C 178.160156 437.328125 178.117188 436.539062 178.117188 435.792969 L 231.769531 435.792969 C 236.097656 447.667969 245.648438 456.167969 260.90625 456.167969 C 276.191406 456.167969 291.976562 442.257812 291.976562 425.097656 C 291.976562 407.9375 276.191406 394.027344 260.90625 394.027344 C 245.648438 394.027344 236.097656 402.527344 231.769531 414.402344 L 152.632812 414.402344 C 151.976562 420.273438 151.652344 426.25 151.652344 432.320312 C 151.652344 521.5625 224 593.910156 313.242188 593.910156 C 401.300781 593.910156 472.929688 523.433594 474.757812 435.800781 L 504.382812 435.800781 C 508.742188 447.679688 520.164062 456.175781 533.550781 456.175781 C 550.707031 456.175781 564.617188 442.265625 564.617188 425.109375 C 564.617188 407.949219 550.707031 394.039062 533.550781 394.039062 C 520.164062 394.039062 508.742188 402.535156 504.382812 414.414062 L 473.796875 414.414062 Z M 533.550781 412.722656 C 526.71875 412.722656 521.175781 418.269531 521.175781 425.097656 C 521.175781 431.925781 526.71875 437.46875 533.550781 437.46875 C 540.378906 437.46875 545.921875 431.925781 545.921875 425.097656 C 545.921875 418.269531 540.367188 412.722656 533.550781 412.722656 Z M 260.90625 412.722656 C 254.078125 412.722656 248.574219 418.269531 248.574219 425.097656 C 248.574219 431.925781 254.085938 437.46875 260.90625 437.46875 C 267.765625 437.46875 273.277344 431.925781 273.277344 425.097656 C 273.277344 418.269531 267.765625 412.722656 260.90625 412.722656 Z M 260.90625 412.722656 " fill-opacity="1" fill-rule="evenodd"/></g><g clip-path="url(#3aaf0d356c)"><path fill="#8c52ff" d="M 273.207031 274.230469 C 224.554688 286.566406 184.652344 320.882812 164.671875 365.964844 L 118.972656 365.964844 C 114.644531 354.085938 103.222656 345.617188 89.804688 345.617188 C 72.679688 345.628906 58.765625 359.507812 58.765625 376.667969 C 58.765625 393.824219 72.679688 407.738281 89.804688 407.738281 C 103.222656 407.738281 114.644531 399.238281 118.972656 387.359375 L 185.511719 387.359375 C 203.855469 334.507812 254.117188 296.539062 313.242188 296.539062 C 364.027344 296.539062 408.261719 324.554688 431.355469 365.964844 L 388.703125 365.964844 C 384.375 354.085938 372.953125 345.617188 359.535156 345.617188 C 342.410156 345.617188 328.496094 359.5 328.496094 376.65625 C 328.496094 393.816406 342.410156 407.726562 359.535156 407.726562 C 372.953125 407.726562 384.375 399.226562 388.703125 387.351562 L 469.519531 387.351562 C 453.808594 331.867188 409.34375 288.46875 353.242188 274.222656 L 353.242188 234.359375 L 366.464844 234.359375 C 375.066406 234.359375 382.117188 227.308594 382.117188 218.679688 C 382.117188 210.050781 375.066406 203 366.464844 203 L 345.402344 203 C 346.941406 206.480469 347.800781 210.3125 347.800781 214.351562 C 347.800781 229.769531 335.296875 242.304688 319.878906 242.304688 C 304.429688 242.304688 291.925781 229.769531 291.925781 214.351562 C 291.925781 210.3125 292.773438 206.480469 294.320312 203 L 260.035156 203 C 251.40625 203 244.355469 210.050781 244.355469 218.679688 C 244.355469 227.308594 251.40625 234.359375 260.035156 234.359375 L 273.226562 234.359375 L 273.226562 274.230469 Z M 359.527344 364.292969 C 366.386719 364.292969 371.898438 369.839844 371.898438 376.667969 C 371.898438 383.496094 366.386719 389.039062 359.527344 389.039062 C 352.699219 389.039062 347.152344 383.496094 347.152344 376.667969 C 347.152344 369.839844 352.707031 364.292969 359.527344 364.292969 Z M 89.804688 364.292969 C 96.664062 364.292969 102.179688 369.839844 102.179688 376.667969 C 102.179688 383.496094 96.664062 389.039062 89.804688 389.039062 C 82.976562 389.039062 77.433594 383.496094 77.433594 376.667969 C 77.464844 369.839844 82.976562 364.292969 89.804688 364.292969 Z M 89.804688 364.292969 " fill-opacity="1" fill-rule="evenodd"/></g><path fill="#8c52ff" d="M 319.859375 196.878906 C 310.175781 196.878906 302.375 204.71875 302.375 214.359375 C 302.375 224 310.1875 231.84375 319.859375 231.84375 C 329.5 231.84375 337.308594 224 337.308594 214.359375 C 337.308594 204.71875 329.507812 196.878906 319.859375 196.878906 Z M 319.859375 196.878906 " fill-opacity="1" fill-rule="evenodd"/><path fill="#8c52ff" d="M 297.679688 161.964844 C 290.132812 161.964844 284.03125 168.0625 284.03125 175.613281 C 284.03125 183.160156 290.132812 189.257812 297.679688 189.257812 C 305.226562 189.257812 311.328125 183.160156 311.328125 175.613281 C 311.328125 168.0625 305.226562 161.964844 297.679688 161.964844 Z M 297.679688 161.964844 " fill-opacity="1" fill-rule="evenodd"/><g clip-path="url(#430e52c7b9)"><path fill="#8c52ff" d="M 332.625 147.921875 C 326.847656 147.921875 322.195312 152.617188 322.195312 158.351562 C 322.195312 164.128906 326.859375 168.78125 332.625 168.78125 C 338.390625 168.78125 343.054688 164.128906 343.054688 158.351562 C 343.054688 152.617188 338.402344 147.921875 332.625 147.921875 Z M 332.625 147.921875 " fill-opacity="1" fill-rule="evenodd"/></g><g fill="#000000" fill-opacity="1"><g transform="translate(610.264302, 494.173895)"><g><path d="M 54.515625 1.828125 C 44.972656 1.828125 36.40625 -0.1875 28.8125 -4.21875 C 21.226562 -8.257812 15.265625 -13.878906 10.921875 -21.078125 C 6.585938 -28.273438 4.421875 -36.425781 4.421875 -45.53125 C 4.421875 -54.632812 6.585938 -62.785156 10.921875 -69.984375 C 15.265625 -77.179688 21.226562 -82.796875 28.8125 -86.828125 C 36.40625 -90.867188 44.972656 -92.890625 54.515625 -92.890625 C 62.835938 -92.890625 70.335938 -91.414062 77.015625 -88.46875 C 83.691406 -85.519531 89.242188 -81.269531 93.671875 -75.71875 L 77.28125 -60.890625 C 71.375 -67.992188 64.21875 -71.546875 55.8125 -71.546875 C 50.863281 -71.546875 46.457031 -70.460938 42.59375 -68.296875 C 38.738281 -66.128906 35.75 -63.070312 33.625 -59.125 C 31.5 -55.175781 30.4375 -50.644531 30.4375 -45.53125 C 30.4375 -40.414062 31.5 -35.882812 33.625 -31.9375 C 35.75 -27.988281 38.738281 -24.929688 42.59375 -22.765625 C 46.457031 -20.597656 50.863281 -19.515625 55.8125 -19.515625 C 64.21875 -19.515625 71.375 -23.070312 77.28125 -30.1875 L 93.671875 -15.34375 C 89.242188 -9.800781 83.691406 -5.550781 77.015625 -2.59375 C 70.335938 0.351562 62.835938 1.828125 54.515625 1.828125 Z M 54.515625 1.828125 "/></g></g></g><g fill="#000000" fill-opacity="1"><g transform="translate(706.268498, 494.173895)"><g><path d="M 55.03125 1.828125 C 45.40625 1.828125 36.753906 -0.207031 29.078125 -4.28125 C 21.398438 -8.363281 15.367188 -14.003906 10.984375 -21.203125 C 6.609375 -28.398438 4.421875 -36.507812 4.421875 -45.53125 C 4.421875 -54.550781 6.609375 -62.660156 10.984375 -69.859375 C 15.367188 -77.054688 21.398438 -82.691406 29.078125 -86.765625 C 36.753906 -90.847656 45.40625 -92.890625 55.03125 -92.890625 C 64.65625 -92.890625 73.304688 -90.847656 80.984375 -86.765625 C 88.660156 -82.691406 94.6875 -77.054688 99.0625 -69.859375 C 103.445312 -62.660156 105.640625 -54.550781 105.640625 -45.53125 C 105.640625 -36.507812 103.445312 -28.398438 99.0625 -21.203125 C 94.6875 -14.003906 88.660156 -8.363281 80.984375 -4.28125 C 73.304688 -0.207031 64.65625 1.828125 55.03125 1.828125 Z M 55.03125 -19.515625 C 59.625 -19.515625 63.785156 -20.597656 67.515625 -22.765625 C 71.242188 -24.929688 74.191406 -27.988281 76.359375 -31.9375 C 78.535156 -35.882812 79.625 -40.414062 79.625 -45.53125 C 79.625 -50.644531 78.535156 -55.175781 76.359375 -59.125 C 74.191406 -63.070312 71.242188 -66.128906 67.515625 -68.296875 C 63.785156 -70.460938 59.625 -71.546875 55.03125 -71.546875 C 50.4375 -71.546875 46.273438 -70.460938 42.546875 -68.296875 C 38.816406 -66.128906 35.863281 -63.070312 33.6875 -59.125 C 31.519531 -55.175781 30.4375 -50.644531 30.4375 -45.53125 C 30.4375 -40.414062 31.519531 -35.882812 33.6875 -31.9375 C 35.863281 -27.988281 38.816406 -24.929688 42.546875 -22.765625 C 46.273438 -20.597656 50.4375 -19.515625 55.03125 -19.515625 Z M 55.03125 -19.515625 "/></g></g></g><g fill="#000000" fill-opacity="1"><g transform="translate(816.32205, 494.173895)"><g><path d="M 9.109375 -91.0625 L 52.171875 -91.0625 C 62.140625 -91.0625 70.984375 -89.195312 78.703125 -85.46875 C 86.421875 -81.738281 92.40625 -76.445312 96.65625 -69.59375 C 100.90625 -62.75 103.03125 -54.726562 103.03125 -45.53125 C 103.03125 -36.34375 100.90625 -28.320312 96.65625 -21.46875 C 92.40625 -14.613281 86.421875 -9.320312 78.703125 -5.59375 C 70.984375 -1.863281 62.140625 0 52.171875 0 L 9.109375 0 Z M 51.125 -20.5625 C 58.925781 -20.5625 65.191406 -22.769531 69.921875 -27.1875 C 74.648438 -31.613281 77.015625 -37.726562 77.015625 -45.53125 C 77.015625 -53.332031 74.648438 -59.445312 69.921875 -63.875 C 65.191406 -68.300781 58.925781 -70.515625 51.125 -70.515625 L 34.859375 -70.515625 L 34.859375 -20.5625 Z M 51.125 -20.5625 "/></g></g></g><g fill="#000000" fill-opacity="1"><g transform="translate(923.77388, 494.173895)"><g><path d="M 82.21875 -19.90625 L 82.21875 0 L 9.109375 0 L 9.109375 -91.0625 L 80.53125 -91.0625 L 80.53125 -71.15625 L 34.609375 -71.15625 L 34.609375 -55.8125 L 75.0625 -55.8125 L 75.0625 -36.5625 L 34.609375 -36.5625 L 34.609375 -19.90625 Z M 82.21875 -19.90625 "/></g></g></g><g fill="#6604f1" fill-opacity="1"><g transform="translate(1034.227562, 494.173895)"><g><path d="M 9.109375 -91.0625 L 34.859375 -91.0625 L 34.859375 -20.421875 L 78.3125 -20.421875 L 78.3125 0 L 9.109375 0 Z M 9.109375 -91.0625 "/></g></g></g><g fill="#6604f1" fill-opacity="1"><g transform="translate(1113.580628, 494.173895)"><g><path d="M 70.125 -17.6875 L 31.609375 -17.6875 L 24.453125 0 L -1.828125 0 L 38.375 -91.0625 L 63.75 -91.0625 L 104.078125 0 L 77.28125 0 Z M 62.578125 -36.6875 L 50.859375 -65.828125 L 39.15625 -36.6875 Z M 62.578125 -36.6875 "/></g></g></g><g fill="#6604f1" fill-opacity="1"><g transform="translate(1215.828961, 494.173895)"><g><path d="M 79.09375 -47.484375 C 84.300781 -45.660156 88.378906 -42.816406 91.328125 -38.953125 C 94.273438 -35.097656 95.75 -30.441406 95.75 -24.984375 C 95.75 -17.003906 92.539062 -10.84375 86.125 -6.5 C 79.707031 -2.164062 70.425781 0 58.28125 0 L 9.109375 0 L 9.109375 -91.0625 L 55.6875 -91.0625 C 67.300781 -91.0625 76.144531 -88.914062 82.21875 -84.625 C 88.289062 -80.332031 91.328125 -74.546875 91.328125 -67.265625 C 91.328125 -62.921875 90.265625 -59.035156 88.140625 -55.609375 C 86.015625 -52.179688 83 -49.472656 79.09375 -47.484375 Z M 34.609375 -72.46875 L 34.609375 -54.90625 L 52.296875 -54.90625 C 60.972656 -54.90625 65.3125 -57.851562 65.3125 -63.75 C 65.3125 -69.5625 60.972656 -72.46875 52.296875 -72.46875 Z M 56.203125 -18.609375 C 65.222656 -18.609375 69.734375 -21.6875 69.734375 -27.84375 C 69.734375 -34 65.222656 -37.078125 56.203125 -37.078125 L 34.609375 -37.078125 L 34.609375 -18.609375 Z M 56.203125 -18.609375 "/></g></g></g></svg>